<svg width="16" height="16" viewBox="0 0 16 16" fill="none" xmlns="http://www.w3.org/2000/svg">
<path d="M8.00008 4.66675C6.16008 4.66675 4.66675 6.16008 4.66675 8.00008C4.66675 9.84008 6.16008 11.3334 8.00008 11.3334C9.84008 11.3334 11.3334 9.84008 11.3334 8.00008C11.3334 6.16008 9.84008 4.66675 8.00008 4.66675ZM1.33341 8.66675H2.66675C3.03341 8.66675 3.33341 8.36675 3.33341 8.00008C3.33341 7.63341 3.03341 7.33341 2.66675 7.33341H1.33341C0.966748 7.33341 0.666748 7.63341 0.666748 8.00008C0.666748 8.36675 0.966748 8.66675 1.33341 8.66675ZM13.3334 8.66675H14.6667C15.0334 8.66675 15.3334 8.36675 15.3334 8.00008C15.3334 7.63341 15.0334 7.33341 14.6667 7.33341H13.3334C12.9667 7.33341 12.6667 7.63341 12.6667 8.00008C12.6667 8.36675 12.9667 8.66675 13.3334 8.66675ZM7.33341 1.33341V2.66675C7.33341 3.03341 7.63341 3.33341 8.00008 3.33341C8.36675 3.33341 8.66675 3.03341 8.66675 2.66675V1.33341C8.66675 0.966748 8.36675 0.666748 8.00008 0.666748C7.63341 0.666748 7.33341 0.966748 7.33341 1.33341ZM7.33341 13.3334V14.6667C7.33341 15.0334 7.63341 15.3334 8.00008 15.3334C8.36675 15.3334 8.66675 15.0334 8.66675 14.6667V13.3334C8.66675 12.9667 8.36675 12.6667 8.00008 12.6667C7.63341 12.6667 7.33341 12.9667 7.33341 13.3334ZM3.99341 3.05341C3.73341 2.79341 3.30675 2.79341 3.05341 3.05341C2.79341 3.31341 2.79341 3.74008 3.05341 3.99341L3.76008 4.70008C4.02008 4.96008 4.44675 4.96008 4.70008 4.70008C4.95341 4.44008 4.96008 4.01341 4.70008 3.76008L3.99341 3.05341ZM12.2401 11.3001C11.9801 11.0401 11.5534 11.0401 11.3001 11.3001C11.0401 11.5601 11.0401 11.9867 11.3001 12.2401L12.0067 12.9467C12.2667 13.2067 12.6934 13.2067 12.9467 12.9467C13.2067 12.6867 13.2067 12.2601 12.9467 12.0067L12.2401 11.3001ZM12.9467 3.99341C13.2067 3.73341 13.2067 3.30675 12.9467 3.05341C12.6867 2.79341 12.2601 2.79341 12.0067 3.05341L11.3001 3.76008C11.0401 4.02008 11.0401 4.44675 11.3001 4.70008C11.5601 4.95341 11.9867 4.96008 12.2401 4.70008L12.9467 3.99341ZM4.70008 12.2401C4.96008 11.9801 4.96008 11.5534 4.70008 11.3001C4.44008 11.0401 4.01341 11.0401 3.76008 11.3001L3.05341 12.0067C2.79341 12.2667 2.79341 12.6934 3.05341 12.9467C3.31341 13.2001 3.74008 13.2067 3.99341 12.9467L4.70008 12.2401Z" fill="black"/>
</svg>
