<svg width="256" height="200" viewBox="0 0 256 200" fill="none" xmlns="http://www.w3.org/2000/svg">
<path d="M67 64.25C67 58.0368 72.0368 53 78.25 53H163.75C169.963 53 175 58.0368 175 64.25V113.75C175 119.963 169.963 125 163.75 125H78.25C72.0368 125 67 119.963 67 113.75V64.25ZM94 66.5V62H85V66.5C85 68.9853 82.9853 71 80.5 71H76V80H80.5C87.9558 80 94 73.9558 94 66.5ZM139 89C139 79.0589 130.941 71 121 71C111.059 71 103 79.0589 103 89C103 98.9411 111.059 107 121 107C130.941 107 139 98.9411 139 89ZM157 62H148V66.5C148 73.9558 154.044 80 161.5 80H166V71H161.5C159.015 71 157 68.9853 157 66.5V62ZM94 111.5C94 104.044 87.9558 98 80.5 98H76V107H80.5C82.9853 107 85 109.015 85 111.5V116H94V111.5ZM157 116V111.5C157 109.015 159.015 107 161.5 107H166V98H161.5C154.044 98 148 104.044 148 111.5V116H157ZM98.5 143C92.5006 143 87.4152 139.087 85.6574 133.673C86.9061 133.888 88.19 134 89.5 134H163.75C174.934 134 184 124.934 184 113.75V71.7682C189.243 73.6214 193 78.622 193 84.5V113.75C193 129.904 179.904 143 163.75 143H98.5Z" fill="#434344"/>
<rect x="56.0503" y="36.9497" width="14" height="186" rx="7" transform="rotate(-45 56.0503 36.9497)" fill="#5F45D5" stroke="#1D1E1F" stroke-width="7"/>
</svg>
