<svg width="256" height="200" viewBox="0 0 256 200" fill="none" xmlns="http://www.w3.org/2000/svg">
<path d="M123.237 36C155.168 36 181.053 62.266 181.053 94.6667C181.053 127.067 155.168 153.333 123.237 153.333C91.3056 153.333 65.4203 127.067 65.4203 94.6667C65.4203 62.266 91.3056 36 123.237 36ZM144.261 94.6673H123.237L123.237 67.9993C123.237 65.0538 120.883 62.6659 117.981 62.6659C115.078 62.6659 112.725 65.0538 112.725 67.9993L112.725 99.9844L112.725 100.001C112.725 102.946 115.078 105.334 117.981 105.334H144.261C147.164 105.334 149.517 102.946 149.517 100.001C149.517 97.0551 147.164 94.6673 144.261 94.6673Z" fill="#434344"/>
<path d="M162.986 167C179.923 167 193.58 153.079 193.58 136C193.58 118.921 179.923 105 162.986 105C146.048 105 132.391 118.921 132.391 136C132.391 153.079 146.048 167 162.986 167Z" fill="#11B648" stroke="#1D1E1F" stroke-width="6"/>
<path d="M177.599 130.828C179.138 129.266 179.138 126.734 177.599 125.172C176.06 123.609 173.564 123.609 172.024 125.172L159.043 138.343L153.947 133.172C152.407 131.609 149.911 131.609 148.372 133.172C146.833 134.734 146.833 137.266 148.372 138.828L156.256 146.828C157.796 148.391 160.291 148.391 161.831 146.828L177.599 130.828Z" fill="#212121"/>
</svg>
