<svg width="256" height="200" viewBox="0 0 256 200" fill="none" xmlns="http://www.w3.org/2000/svg">
<path d="M42 28.2188V49.5938H67.7344V24.7031L42 28.2188ZM42 73.9219L67.7344 77.4375V52.8281H42V73.9219ZM70.5469 77.8594L105 82.5V52.8281H70.5469V77.8594ZM70.5469 24.2812V49.5938H105V19.5L70.5469 24.2812Z" fill="#434344"/>
<path d="M201.719 46.8281C201.719 41.625 204.109 37.8281 208.75 34.875C206.078 31.0781 202.141 29.1094 196.938 28.6875C191.875 28.2656 186.391 31.5 184.422 31.5C182.312 31.5 177.531 28.8281 173.734 28.8281C165.859 28.9688 157.562 35.0156 157.562 47.5312C157.562 51.1875 158.125 54.9844 159.531 58.9219C161.359 64.125 167.828 76.7812 174.578 76.5C178.094 76.5 180.625 73.9688 185.266 73.9688C189.766 73.9688 192.016 76.5 195.953 76.5C202.844 76.5 208.75 64.9688 210.438 59.7656C201.297 55.4062 201.719 47.1094 201.719 46.8281ZM193.844 23.7656C197.641 19.2656 197.219 15.0469 197.219 13.5C193.844 13.7812 189.906 15.8906 187.656 18.4219C185.125 21.2344 183.719 24.75 184 28.5469C187.656 28.8281 191.031 27 193.844 23.7656Z" fill="#434344"/>
<path d="M72.9375 131.438C73.0781 131.438 73.2188 131.578 73.3594 131.578C73.5 131.578 73.7813 131.578 73.7813 131.438C73.7813 131.297 73.5 131.156 73.3594 131.016C73.0781 130.875 72.7969 130.875 72.6563 131.016C72.5156 131.016 72.5156 131.156 72.5156 131.156C72.5156 131.297 72.7969 131.297 72.9375 131.438ZM69.8438 131.578C70.125 131.578 70.125 131.438 70.2656 131.438C70.5469 131.297 70.8281 131.297 70.8281 131.156C70.8281 131.156 70.8281 131.016 70.6875 131.016C70.5469 130.875 70.2656 130.875 69.9844 131.016C69.8438 131.156 69.4219 131.297 69.5625 131.438C69.5625 131.578 69.7031 131.719 69.8438 131.578ZM101.063 170.812C100.5 170.25 100.219 169.266 99.9375 168.141C99.7969 166.875 99.375 165.75 98.5313 164.906C98.3906 164.766 98.1094 164.625 97.9688 164.484C97.8281 164.344 97.5469 164.344 97.4063 164.203C98.6719 160.406 98.1094 156.609 96.8438 153.094C95.2969 148.875 92.4844 145.219 90.375 142.688C87.8438 139.594 85.5938 136.781 85.5938 132.562C85.7344 126.094 86.2969 114.141 74.9063 114C60.5625 114 64.2188 128.625 63.9375 133.125C63.7969 136.359 63.0938 138.891 60.8438 142.125C58.1719 145.359 54.375 150.422 52.6875 155.766C51.8438 158.297 51.4219 160.828 51.8438 163.219C50.8594 164.062 50.1563 165.328 49.4531 166.172C48.8906 166.734 48.0469 166.875 47.0625 167.297C46.0781 167.578 45.0938 168.141 44.5313 169.266C44.1094 169.828 44.1094 170.391 44.1094 171.094C44.1094 171.656 44.1094 172.219 44.25 172.781C44.3906 173.906 44.5313 174.891 44.3906 175.594C43.6875 177.703 43.5469 179.109 44.1094 180.094C44.5313 181.078 45.6563 181.641 46.9219 181.781C49.3125 182.344 52.5469 182.203 55.2188 183.609C58.0313 185.016 60.8438 185.578 63.0938 185.016C64.6406 184.734 66.0469 183.75 66.75 182.203C68.4375 182.203 70.4063 181.5 73.5 181.219C75.6094 181.078 78.2813 182.062 81.2344 181.922C81.375 182.203 81.5156 182.484 81.6563 182.766C82.7813 185.156 84.8906 186.281 87.2813 186C89.6719 185.859 92.0625 184.453 94.0313 182.062C96 179.812 99.0938 178.828 101.203 177.562C102.328 177 103.172 176.156 103.172 175.031C103.172 173.906 102.609 172.641 101.063 170.812ZM73.3594 126.375C74.7656 123.281 78.1406 123.281 79.5469 126.234C80.5313 128.344 80.1094 130.594 78.9844 132C78.7031 131.859 78.1406 131.578 77.1563 131.297C77.2969 131.156 77.5781 130.875 77.7188 130.594C78.4219 128.906 77.7188 126.797 76.4531 126.797C75.4688 126.656 74.4844 128.344 74.7656 130.031C74.2031 129.75 73.5 129.469 72.9375 129.469C72.7969 128.484 72.9375 127.359 73.3594 126.375ZM67.7344 124.688C69.1406 124.688 70.5469 126.656 70.4063 129.469C69.8438 129.609 69.4219 129.75 68.8594 130.031C69.1406 128.766 68.4375 127.219 67.5938 127.359C66.3281 127.359 66.1875 130.312 67.3125 131.297C67.4531 131.438 67.5938 131.297 66.4688 132C64.3594 130.031 65.0625 124.688 67.7344 124.688ZM65.7656 133.266C66.6094 132.562 67.7344 131.859 67.7344 131.719C68.4375 131.156 69.7031 129.75 71.6719 129.75C72.6563 129.75 73.9219 130.172 75.3281 131.016C76.1719 131.578 76.875 131.719 78.4219 132.281C79.6875 132.844 80.3906 133.688 79.9688 134.953C79.5469 135.938 78.4219 136.922 76.7344 137.484C75.1875 137.906 73.9219 139.734 71.3906 139.594C70.8281 139.453 70.4063 139.453 69.9844 139.312C68.8594 138.75 68.2969 137.766 67.1719 137.203C66.0469 136.5 65.3438 135.656 65.2031 134.953C64.9219 134.25 65.2031 133.688 65.7656 133.266ZM66.1875 180.234C65.9063 185.156 60 185.016 55.6406 182.766C51.4219 180.516 45.9375 181.781 44.8125 179.672C44.5313 178.969 44.5313 177.844 45.2344 176.016V175.875C45.5156 174.891 45.375 173.625 45.0938 172.641C44.9531 171.516 44.9531 170.531 45.2344 169.828C45.7969 168.844 46.5 168.422 47.3438 168.141C48.75 167.719 49.0313 167.719 50.1563 166.734C50.8594 166.031 51.4219 164.906 52.125 164.203C52.8281 163.5 53.5313 163.078 54.6563 163.219C55.7813 163.5 56.7656 164.203 57.75 165.469L60.4219 170.531C61.8281 173.344 66.4688 177.281 66.1875 180.234ZM66.0469 176.578C65.4844 175.594 64.6406 174.609 63.9375 173.766C65.0625 173.766 66.0469 173.484 66.3281 172.641C66.6094 171.656 66.3281 170.531 65.3438 169.125C63.375 166.453 59.8594 164.484 59.8594 164.484C58.0313 163.359 56.9063 161.812 56.4844 160.266C55.9219 158.719 56.0625 157.031 56.4844 155.344C57.1875 152.109 59.0156 149.016 60.2813 147.047C60.5625 146.766 60.4219 147.469 59.0156 150C57.8906 152.25 55.6406 157.453 58.5938 161.531C58.7344 158.578 59.4375 155.625 60.5625 152.953C62.25 149.016 65.9063 142.406 66.1875 137.062C66.3281 137.203 66.75 137.484 67.0313 137.625C67.5938 138.047 68.1563 138.609 68.7188 139.031C70.5469 140.438 72.7969 140.297 74.7656 139.172C75.6094 138.75 76.3125 138.188 77.0156 137.906C78.4219 137.484 79.4063 136.781 80.1094 135.797C81.2344 140.156 83.7656 146.344 85.3125 149.297C86.1563 150.984 87.8438 154.359 88.6875 158.438C89.1094 158.438 89.6719 158.438 90.2344 158.578C92.0625 153.516 88.5469 148.172 86.8594 146.625C86.2969 146.062 86.1563 145.781 86.5781 145.781C88.2656 147.328 90.6563 150.422 91.5 154.078C91.9219 155.625 91.9219 157.312 91.5 159C93.8906 159.984 96.5625 161.531 95.8594 163.922C95.5781 163.922 95.4375 163.922 95.2969 163.922C95.7188 162.516 94.7344 161.531 92.0625 160.266C89.25 159.141 87 159.141 86.7188 162.094C85.0313 162.656 84.0469 164.062 83.625 165.891C83.3438 167.438 83.2031 169.406 83.0625 171.516C82.9219 172.641 82.5 174.047 82.0781 175.594C77.5781 178.828 71.25 180.234 66.0469 176.578ZM102.188 175.031C102.047 177.281 96.4219 177.703 93.3281 181.5C91.5 183.75 89.25 184.875 87.1406 185.156C85.1719 185.297 83.4844 184.453 82.5 182.344C81.7969 180.797 82.0781 179.109 82.6406 177.281C83.2031 175.312 83.9063 173.203 84.0469 171.516C84.1875 169.406 84.1875 167.578 84.6094 166.172C85.0313 164.625 85.5938 163.641 86.5781 163.219C86.5781 163.078 86.5781 163.078 86.7188 163.078C86.7188 164.906 87.7031 166.875 89.25 167.297C91.0781 167.719 93.6094 166.172 94.7344 164.906C96 164.906 96.9844 164.766 97.8281 165.609C99.2344 166.875 98.9531 169.969 100.359 171.516C101.766 173.203 102.328 174.188 102.188 175.031ZM66.3281 134.953C66.6094 135.234 67.0313 135.656 67.4531 135.938C68.2969 136.641 69.7031 137.484 71.25 137.484C72.9375 137.484 74.4844 136.641 75.75 135.938C76.4531 135.516 77.2969 134.953 77.8594 134.531C78.4219 133.969 78.7031 133.547 78.2813 133.547C77.8594 133.547 77.8594 133.969 77.4375 134.25C76.7344 134.672 76.0313 135.375 75.4688 135.656C74.4844 136.219 72.6563 137.062 71.25 137.062C69.8438 137.062 68.5781 136.359 67.7344 135.656C67.3125 135.375 66.8906 134.953 66.6094 134.812C66.4688 134.531 66.4688 134.109 66.0469 134.109C65.9063 134.109 65.7656 134.531 66.3281 134.953Z" fill="#434344"/>
<path d="M193 129.047V125.953H190.047V129.047H193ZM177.953 129.047V125.953H175V129.047H177.953ZM194.547 120.469C199.516 124.031 202 128.859 202 134.953H166C166 132.422 166.703 129.75 168.109 126.938C169.516 124.125 171.25 121.969 173.312 120.469L169.375 116.531C168.625 115.781 168.625 115.078 169.375 114.422C170.125 113.766 170.828 113.766 171.484 114.422L175.984 118.922C178.422 117.609 181.094 116.953 184 116.953C186.438 116.953 189.062 117.609 191.875 118.922L196.375 114.422C197.125 113.766 197.828 113.766 198.484 114.422C199.141 115.078 199.141 115.781 198.484 116.531L194.547 120.469ZM206.219 139.453C207.156 138.516 208.234 138.047 209.453 138.047C210.672 138.047 211.703 138.516 212.547 139.453C213.484 140.297 213.953 141.328 213.953 142.547V163.5C213.953 164.812 213.484 165.891 212.547 166.734C211.703 167.578 210.672 168 209.453 168C208.234 168 207.156 167.578 206.219 166.734C205.375 165.891 204.953 164.812 204.953 163.5V142.547C204.953 141.328 205.375 140.297 206.219 139.453ZM155.312 139.453C156.25 138.516 157.328 138.047 158.547 138.047C159.766 138.047 160.797 138.516 161.641 139.453C162.578 140.297 163.047 141.328 163.047 142.547V163.5C163.047 164.812 162.578 165.891 161.641 166.734C160.797 167.578 159.766 168 158.547 168C157.328 168 156.25 167.578 155.312 166.734C154.469 165.891 154.047 164.812 154.047 163.5V142.547C154.047 141.328 154.469 140.297 155.312 139.453ZM166 168V138.047H202V168C202 168.844 201.719 169.547 201.156 170.109C200.594 170.672 199.891 170.953 199.047 170.953H195.953V181.5C195.953 182.812 195.484 183.891 194.547 184.734C193.703 185.578 192.672 186 191.453 186C190.234 186 189.156 185.578 188.219 184.734C187.375 183.891 186.953 182.812 186.953 181.5V170.953H181.047V181.5C181.047 182.812 180.578 183.891 179.641 184.734C178.797 185.578 177.766 186 176.547 186C175.328 186 174.25 185.578 173.312 184.734C172.469 183.891 172.047 182.812 172.047 181.5V170.953H168.953C168.109 170.953 167.406 170.672 166.844 170.109C166.281 169.547 166 168.844 166 168Z" fill="#434344"/>
</svg>
