<svg width="256" height="200" viewBox="0 0 256 200" fill="none" xmlns="http://www.w3.org/2000/svg">
<rect x="11" y="55" width="128" height="88" rx="12" fill="#434344"/>
<path d="M30.071 131.193C32.1236 131.193 33.4759 129.938 33.7173 128.295H32.2926C32.027 129.31 31.1818 129.913 30.071 129.913C28.3807 129.913 27.294 128.513 27.294 126.364C27.294 124.263 28.4048 122.886 30.071 122.886C31.3267 122.886 32.0753 123.659 32.2926 124.504H33.7173C33.4759 122.766 32.0028 121.607 30.0469 121.607C27.5355 121.607 25.8693 123.587 25.8693 126.412C25.8693 129.189 27.4631 131.193 30.071 131.193ZM35.8001 131H37.2248V125.205C37.2248 123.846 38.2148 122.886 39.3256 122.886C40.4062 122.886 41.1609 123.593 41.1609 124.649V131H42.6097V124.963C42.6097 123.768 43.3583 122.886 44.6623 122.886C45.6765 122.886 46.5458 123.424 46.5458 124.794V131H47.9705V124.794C47.9705 122.615 46.7994 121.607 45.1452 121.607C43.8171 121.607 42.8452 122.216 42.3683 123.176H42.2717C41.8129 122.186 41.0039 121.607 39.7844 121.607C38.5771 121.607 37.6836 122.186 37.2972 123.176H37.1765V121.727H35.8001V131ZM54.0769 131.193C55.8638 131.193 56.4675 130.082 56.7814 129.575H56.9505V131H58.3269V118.636H56.9022V123.2H56.7814C56.4675 122.717 55.9121 121.607 54.101 121.607C51.7587 121.607 50.1408 123.466 50.1408 126.388C50.1408 129.334 51.7587 131.193 54.0769 131.193ZM54.2701 129.913C52.4831 129.913 51.5655 128.344 51.5655 126.364C51.5655 124.408 52.459 122.886 54.2701 122.886C56.0087 122.886 56.9263 124.287 56.9263 126.364C56.9263 128.464 55.9846 129.913 54.2701 129.913Z" fill="#9C9C9E"/>
<rect x="157" y="55" width="88" height="88" rx="12" fill="#434344"/>
<path d="M195.77 84.0909C195.77 74.6562 190.237 68.7741 182.608 68.7741C174.979 68.7741 169.446 74.6562 169.446 84.0909C169.446 93.5256 174.979 99.4077 182.608 99.4077C190.237 99.4077 195.77 93.5256 195.77 84.0909ZM192.276 84.0909C192.276 91.8366 188.024 96.0298 182.608 96.0298C177.192 96.0298 172.94 91.8366 172.94 84.0909C172.94 76.3452 177.192 72.152 182.608 72.152C188.024 72.152 192.276 76.3452 192.276 84.0909Z" fill="#9E9EA0"/>
<path d="M120.4 84.8H117.6V79.2H120.4C123.493 79.2 126 76.6926 126 73.6C126 70.5074 123.493 68 120.4 68C117.307 68 114.8 70.5074 114.8 73.6V76.4H109.2V73.6C109.2 70.5074 106.693 68 103.6 68C100.507 68 98 70.5074 98 73.6C98 76.6926 100.507 79.2 103.6 79.2H106.4V84.8H103.6C100.507 84.8 98 87.3074 98 90.4C98 93.4926 100.507 96 103.6 96C106.693 96 109.2 93.4926 109.2 90.4V87.6H114.8V90.393C114.8 90.3958 114.8 90.3979 114.8 90.4C114.8 93.4926 117.307 96 120.4 96C123.492 96 126 93.4926 126 90.4C126 87.3074 123.493 84.8007 120.4 84.8ZM120.4 70.8C121.946 70.8 123.2 72.0537 123.2 73.6C123.2 75.1463 121.946 76.4 120.4 76.4H117.6V73.6C117.6 72.0537 118.854 70.8 120.4 70.8ZM100.8 73.6C100.8 72.0537 102.054 70.8 103.6 70.8C105.146 70.8 106.4 72.0537 106.4 73.6V76.4H103.6C102.054 76.4 100.8 75.1459 100.8 73.6ZM103.6 93.2C102.054 93.2 100.8 91.9463 100.8 90.4C100.8 88.8537 102.054 87.6 103.6 87.6H106.4V90.4C106.4 91.9463 105.146 93.2 103.6 93.2ZM109.2 84.8V79.2H114.8V84.8H109.2ZM120.4 93.2C118.854 93.2 117.6 91.9463 117.6 90.4V87.6H120.4C121.946 87.6 123.2 88.8537 123.2 90.4C123.2 91.9463 121.946 93.2 120.4 93.2Z" fill="#9E9EA0"/>
</svg>
