<svg width="256" height="200" viewBox="0 0 256 200" fill="none" xmlns="http://www.w3.org/2000/svg">
<path d="M170 74.6543C141.329 74.6543 118 97.9828 118 126.654C118 148.046 131.41 167.526 151.358 175.125C152.19 175.456 153.126 175.404 153.932 175.014C154.738 174.618 155.349 173.916 155.616 173.058L165.366 141.923C165.827 140.447 165.19 138.848 163.838 138.107C159.619 135.78 157 131.393 157 126.654C157 119.485 162.831 113.654 170 113.654C177.169 113.654 183 119.485 183 126.654C183 131.393 180.381 135.78 176.162 138.114C174.81 138.855 174.167 140.454 174.635 141.929L184.384 173.064C184.651 173.922 185.262 174.624 186.068 175.021C186.517 175.235 187.004 175.346 187.485 175.346C187.875 175.346 188.271 175.274 188.642 175.131C208.597 167.526 222 148.046 222 126.654C222 97.9828 198.672 74.6543 170 74.6543Z" fill="#11B648"/>
<path d="M86 24.4585C66.6625 24.4585 51 39.8585 51 58.8518C51 74.0506 61.0275 86.9393 74.9312 91.4835C76.6812 91.8073 77.3229 90.7427 77.3229 89.8298C77.3229 89.0131 77.2938 86.8489 77.2792 83.9818C67.5433 86.0556 65.49 79.3677 65.49 79.3677C63.8975 75.3981 61.5962 74.3364 61.5962 74.3364C58.4258 72.2043 61.8413 72.2481 61.8413 72.2481C65.3558 72.4873 67.2021 75.7918 67.2021 75.7918C70.3229 81.0506 75.395 79.531 77.3958 78.6531C77.7108 76.4277 78.6121 74.9139 79.6125 74.0535C71.8396 73.1931 63.67 70.2356 63.67 57.0581C63.67 53.3043 65.0263 50.236 67.2721 47.8297C66.8783 46.9606 65.6971 43.4635 67.5783 38.7268C67.5783 38.7268 70.5096 37.8052 77.2033 42.2531C80.0033 41.4889 82.9783 41.1097 85.9533 41.0922C88.9283 41.1097 91.9033 41.4889 94.7033 42.2531C101.353 37.8052 104.285 38.7268 104.285 38.7268C106.166 43.4635 104.985 46.9606 104.635 47.8297C106.866 50.236 108.222 53.3043 108.222 57.0581C108.222 70.2706 100.041 73.1785 92.2533 74.0243C93.4783 75.0568 94.6158 77.1656 94.6158 80.3885C94.6158 84.991 94.5721 88.6893 94.5721 89.8064C94.5721 90.7077 95.1846 91.7839 96.9783 91.4398C110.981 86.9248 121 74.0273 121 58.8518C121 39.8585 105.329 24.4585 86 24.4585Z" fill="#434344"/>
<path d="M82.7916 123H41.2084C36.6828 123 33 126.645 33 131.125V156.875C33 161.355 36.6828 165 41.2084 165H82.7916C87.3172 165 91 161.355 91 156.875V131.125C91 126.645 87.3172 123 82.7916 123ZM54.0488 135.926L45.4134 144.473L53.0927 152.074C53.7565 152.731 53.7565 153.796 53.0927 154.452C52.43 155.109 51.3538 155.109 50.69 154.452L41.8088 145.662C41.1449 145.005 41.1449 143.941 41.8088 143.284L51.645 133.548C52.3088 132.891 53.385 132.891 54.0488 133.548C54.7115 134.204 54.7115 135.269 54.0488 135.926ZM68.0651 131.97L59.0796 157.151C58.767 158.027 57.7961 158.486 56.9114 158.176C56.0267 157.867 55.5622 156.906 55.8749 156.03L64.8604 130.849C65.173 129.974 66.1427 129.514 67.0286 129.824C67.9133 130.133 68.3777 131.094 68.0651 131.97ZM82.1912 144.716L72.355 154.452C71.6912 155.109 70.615 155.109 69.9512 154.452C69.2885 153.796 69.2885 152.731 69.9512 152.074L78.5866 143.527L70.9073 135.926C70.2435 135.269 70.2435 134.204 70.9073 133.548C71.57 132.891 72.6462 132.891 73.31 133.548L82.1912 142.338C82.8551 142.995 82.8551 144.059 82.1912 144.716Z" fill="#434344"/>
</svg>
