<svg width="256" height="200" viewBox="0 0 256 200" fill="none" xmlns="http://www.w3.org/2000/svg">
<path d="M80.2651 51.0177C88.0146 41.6275 100.002 35 116.5 35C126.518 35 138.198 38.2803 147.486 45.814C155.86 52.6063 162.056 62.6823 163.38 76.2293C171.498 77.1934 179.369 80.2201 185.66 85.0361C193.478 91.0212 199 99.9292 199 110.947C199 121.193 195.562 130.247 188.133 136.645C180.821 142.942 170.417 146 157.75 146H75.25C59.2952 146 48.6424 141.208 42.0875 133.781C35.6731 126.514 34 117.638 34 110.947C34 97.1857 45.3784 78.6401 69.6923 76.1705C70.7047 67.6656 74.05 58.5485 80.2651 51.0177Z" fill="#434344"/>
<circle cx="187" cy="134" r="31" fill="#1C6AE1" stroke="#1D1E1F" stroke-width="6"/>
<path d="M201.828 128.828C203.391 127.266 203.391 124.734 201.828 123.172C200.266 121.609 197.734 121.609 196.172 123.172L183 136.343L177.828 131.172C176.266 129.609 173.734 129.609 172.172 131.172C170.609 132.734 170.609 135.266 172.172 136.828L180.172 144.828C181.734 146.391 184.266 146.391 185.828 144.828L201.828 128.828Z" fill="#212121"/>
</svg>
