<svg width="256" height="200" viewBox="0 0 256 200" fill="none" xmlns="http://www.w3.org/2000/svg">
<path d="M121.768 39.5H121.76L121.752 39.5001L120.823 39.5101L120.738 39.511L120.653 39.5216C119.12 39.7132 118.033 41.1111 118.225 42.6437C118.225 42.6438 118.225 42.6438 118.225 42.6438L124.588 93.5751L96.4173 94.517L86.8139 77.7133C86.8139 77.7133 86.8139 77.7133 86.8139 77.7132C86.0318 76.3446 84.5763 75.5 83 75.5H81.5V77V95.0052L75.0788 95.2321C75.0784 95.2321 75.0779 95.2321 75.0774 95.2321C71.9674 95.3366 69.5 97.888 69.5 101C69.5 104.112 71.9681 106.664 75.0788 106.768L81.5 106.982V125V126.668L83.159 126.492L83.7694 126.426L83.8488 126.418L83.9268 126.401C85.1312 126.141 86.188 125.382 86.8136 124.287L86.8137 124.287L96.4169 107.475L124.588 108.417L118.215 159.518L118.203 159.61V159.703C118.203 161.248 119.455 162.5 121 162.5H121.768C123.953 162.5 125.931 161.206 126.807 159.204C126.807 159.204 126.807 159.204 126.807 159.204L148.677 109.221L175.344 110.106L175.368 110.107H175.393C180.423 110.107 184.5 106.029 184.5 101V100.987L184.5 100.975L184.496 100.722L184.495 100.709L184.495 100.697C184.327 95.6698 180.116 91.7308 175.089 91.8984L148.669 92.7705L126.807 42.7955L126.807 42.7955C125.931 40.7936 123.953 39.5 121.768 39.5Z" fill="#434344" stroke="#434344" stroke-width="3"/>
<path d="M167.888 59.8261L165.893 66.0001L163.898 59.8261C162.958 56.9071 160.669 54.6181 157.75 53.6773L151.576 51.6823L157.75 49.6873C160.669 48.7465 162.958 46.4575 163.898 43.5385L165.893 37.3645L167.888 43.5385C168.829 46.4575 171.118 48.7465 174.037 49.6873L180.211 51.6823L174.037 53.6773C171.118 54.6181 168.833 56.9071 167.888 59.8261Z" fill="#FEA529"/>
<path d="M152.689 43.4627L151.576 46.9109L150.463 43.4627C149.992 42.0053 148.846 40.8587 147.388 40.3883L143.94 39.2711L147.388 38.1581C148.846 37.6877 149.992 36.5411 150.463 35.0837L151.576 31.6355L152.689 35.0837C153.159 36.5411 154.306 37.6877 155.763 38.1581L159.211 39.2711L155.763 40.3841C154.306 40.8587 153.163 42.0011 152.689 43.4627Z" fill="#FEA529"/>
<path d="M162.752 31.4466L162.076 33.5424L161.399 31.4466C161.093 30.4974 160.349 29.754 159.4 29.4474L157.304 28.7712L159.4 28.095C160.349 27.7884 161.093 27.045 161.399 26.0958L162.076 24L162.752 26.0958C163.058 27.045 163.802 27.7884 164.751 28.095L166.847 28.7712L164.751 29.4474C163.802 29.7582 163.058 30.5016 162.752 31.4466Z" fill="#FEA529"/>
</svg>
