<svg width="256" height="200" viewBox="0 0 256 200" fill="none" xmlns="http://www.w3.org/2000/svg">
<path d="M87.5 49C85.0147 49 83 51.0147 83 53.5V146.5C83 148.985 85.0147 151 87.5 151H110.176C109.533 154.29 110.225 157.439 111.804 160H87.5C80.0442 160 74 153.956 74 146.5V53.5C74 46.0442 80.0442 40 87.5 40H124.015C126.799 40 129.47 41.1062 131.439 43.0754L166.925 78.5607C168.894 80.5298 170 83.2005 170 85.9853V88H169.219C168.555 87.9668 167.89 87.9668 167.227 88H134C127.373 88 122 82.6274 122 76V49H87.5ZM131 55.364V76C131 77.6569 132.343 79 134 79H154.636L131 55.364Z" fill="#434344"/>
<path d="M168.29 94H168.303C171.81 94.0016 175.318 95.3405 177.994 98.0168C183.349 103.372 183.349 112.056 177.994 117.411L142.579 152.826C140.514 154.891 137.927 156.356 135.094 157.064L124.11 159.81C119.333 161.004 115.006 156.677 116.201 151.9L118.947 140.916C119.655 138.083 121.12 135.496 123.185 133.431L158.599 98.0168C161.275 95.3405 164.783 94.0016 168.29 94Z" fill="#0DB9C2"/>
</svg>
