<svg width="256" height="200" viewBox="0 0 256 200" fill="none" xmlns="http://www.w3.org/2000/svg">
<path d="M84 60.0015V25.5C84 23.0147 86.0147 21 88.5 21C90.9853 21 93 23.0147 93 25.5V60.0015C93 61.6583 94.3431 63.0015 96 63.0015C97.6569 63.0015 99 61.6583 99 60.0015V30C99 27.5147 101.015 25.5 103.5 25.5C105.985 25.5 108 27.5147 108 30V64.5C108 64.6273 107.995 64.7533 107.984 64.8779C110.578 63.898 113.825 62.9772 117 62.9772C119.999 62.9772 122.564 63.7262 124.465 64.6838C125.404 65.1566 126.277 65.7286 126.99 66.3774C127.341 66.6963 127.745 67.1175 128.097 67.6409C128.374 68.0523 129 69.0786 129 70.5C129 72.0516 128.201 73.4937 126.885 74.316L115.447 81.4648L105.5 92.8107L97.2362 104.193C94.132 108.469 89.1678 111 83.8839 111H77.0528C71.4669 111 66.111 108.162 63.2234 103.133C61.4106 99.9756 59.1663 95.8268 57.3619 91.7206C55.6454 87.8143 54 83.2434 54 79.4997V37.5C54 35.0147 56.0147 33 58.5 33C60.9853 33 63 35.0147 63 37.5V62.9876C63 64.6444 64.3431 65.9876 66 65.9876C67.6569 65.9876 69 64.6444 69 62.9876V30C69 27.5147 71.0147 25.5 73.5 25.5C75.9853 25.5 78 27.5147 78 30V60.0015C78 61.6583 79.3431 63.0015 81 63.0015C82.6569 63.0015 84 61.6583 84 60.0015Z" fill="#FEA529"/>
<path d="M136.926 166C109.69 166 87.4399 144.65 86 117.773C91.9793 116.917 97.4163 113.679 101.017 108.718L109.119 97.5588L118.302 87.0845L128.991 80.404C132.061 78.4852 133.926 75.1203 133.926 71.5C133.926 68.3122 132.529 66.0764 132.003 65.2936C131.762 64.9353 131.513 64.6077 131.267 64.3104C133.125 64.1053 135.013 64 136.926 64C165.092 64 187.926 86.8335 187.926 115C187.926 143.167 165.092 166 136.926 166ZM158.676 106C158.676 102.272 155.654 99.25 151.926 99.25C148.198 99.25 145.176 102.272 145.176 106C145.176 109.728 148.198 112.75 151.926 112.75C155.654 112.75 158.676 109.728 158.676 106ZM114.539 128.015C112.641 129.619 112.402 132.458 114.007 134.357C119.503 140.859 127.734 145 136.928 145C146.121 145 154.352 140.859 159.848 134.357C161.453 132.458 161.215 129.619 159.316 128.015C157.418 126.411 154.579 126.649 152.975 128.547C149.116 133.113 143.361 136 136.928 136C130.494 136 124.74 133.113 120.88 128.547C119.276 126.649 116.437 126.411 114.539 128.015ZM128.676 106C128.676 102.272 125.654 99.25 121.926 99.25C118.198 99.25 115.176 102.272 115.176 106C115.176 109.728 118.198 112.75 121.926 112.75C125.654 112.75 128.676 109.728 128.676 106Z" fill="#434344"/>
</svg>
